<?xml version="1.0" standalone="no"?>
<!DOCTYPE svg PUBLIC "-//W3C//DTD SVG 20010904//EN"
 "http://www.w3.org/TR/2001/REC-SVG-20010904/DTD/svg10.dtd">
<svg version="1.0" xmlns="http://www.w3.org/2000/svg"
 width="425.000000pt" height="425.000000pt" viewBox="0 0 425.000000 425.000000"
 preserveAspectRatio="xMidYMid meet">
<metadata>
Created by potrace 1.11, written by Peter Selinger 2001-2013
</metadata>
<g transform="translate(0.000000,425.000000) scale(0.100000,-0.100000)"
fill="#000000" stroke="none">
<path d="M1685 3641 c-47 -29 -62 -51 -80 -120 -33 -127 -23 -746 15 -971 44
-260 38 -305 -66 -510 -55 -110 -64 -136 -74 -215 -9 -66 -22 -110 -47 -163
-33 -68 -35 -79 -30 -137 3 -34 18 -96 33 -136 32 -90 41 -126 95 -394 63
-318 63 -317 164 -368 119 -59 271 -82 469 -72 186 9 312 28 338 51 11 11 51
81 89 157 37 75 88 168 113 206 105 163 172 367 201 611 20 171 22 268 6 300
-34 64 -111 120 -167 120 -21 0 -24 5 -24 41 0 48 -12 73 -51 114 -17 17 -40
43 -53 59 -19 25 -32 30 -80 34 -55 4 -57 5 -51 30 7 28 75 170 135 282 22 41
61 140 87 220 51 160 87 253 161 410 102 217 113 272 72 355 -44 88 -129 119
-210 77 -67 -35 -175 -219 -269 -455 -28 -70 -78 -185 -110 -255 -33 -70 -89
-199 -126 -287 -38 -88 -77 -173 -87 -188 -52 -73 -89 8 -170 368 -16 71 -21
146 -27 360 -8 263 -9 272 -36 344 -17 44 -43 89 -65 112 -32 34 -43 39 -81
39 -25 0 -57 -8 -74 -19z m1138 -36 c-6 -17 -19 -19 -28 -5 -4 6 -10 8 -14 6
-4 -3 -13 0 -21 5 -11 8 -8 9 13 6 15 -2 30 0 33 5 9 13 24 -1 17 -17z m37 1
c0 -15 -18 -31 -26 -23 -7 7 7 37 17 37 5 0 9 -6 9 -14z m30 -20 c0 -15 -18
-31 -26 -23 -7 7 7 37 17 37 5 0 9 -6 9 -14z m-1135 -27 c4 -11 4 -42 0 -70
-6 -41 -4 -50 10 -55 24 -10 35 14 28 61 -6 36 -5 39 10 26 10 -8 17 -28 17
-48 0 -22 6 -36 16 -40 21 -8 36 16 29 47 -25 105 -10 122 23 28 28 -78 27
-85 0 -84 -19 1 -24 -5 -26 -31 -2 -18 -7 -33 -11 -33 -4 0 -11 15 -16 33 -12
38 -36 42 -46 7 -4 -14 -7 -19 -8 -12 -2 20 -30 26 -49 9 -12 -11 -31 -14 -69
-10 -52 5 -53 6 -53 39 0 18 5 36 11 40 6 3 20 20 31 38 l19 31 -6 -51 c-5
-39 -3 -53 9 -63 13 -11 19 -11 32 0 12 10 15 24 10 60 -9 68 23 131 39 78z
m1061 -5 c44 -21 60 -36 84 -77 23 -41 29 -60 24 -87 -7 -39 -61 -167 -79
-188 -7 -8 -41 -15 -81 -17 -57 -2 -78 1 -121 21 -71 34 -114 75 -101 97 8 16
14 13 54 -22 49 -43 107 -62 167 -54 71 10 137 96 137 182 0 56 -58 120 -129
141 -107 31 -170 -157 -70 -211 31 -16 87 6 95 38 13 52 -46 89 -65 41 -6 -13
-10 -16 -10 -8 0 21 23 50 42 50 27 0 47 -30 47 -69 0 -92 -131 -116 -174 -32
-26 49 -20 90 24 159 34 54 43 62 70 62 17 0 56 -12 86 -26z m94 2 c0 -8 4
-16 9 -18 4 -1 11 -14 15 -28 7 -25 7 -25 -11 3 -10 15 -21 27 -25 27 -5 0 -8
7 -8 15 0 8 5 15 10 15 6 0 10 -6 10 -14z m-109 -69 c66 -44 70 -137 8 -181
-39 -27 -46 -18 -10 12 29 24 34 34 34 71 0 46 -20 73 -60 85 -32 10 -66 -27
-61 -65 4 -23 2 -26 -9 -18 -32 27 -9 95 37 112 24 9 25 8 61 -16z m-981 -93
c0 -8 -4 -12 -10 -9 -5 3 -10 10 -10 16 0 5 5 9 10 9 6 0 10 -7 10 -16z m70 1
c0 -8 -2 -15 -4 -15 -2 0 -6 7 -10 15 -3 8 -1 15 4 15 6 0 10 -7 10 -15z
m-125 -5 c3 -5 1 -10 -4 -10 -6 0 -11 5 -11 10 0 6 2 10 4 10 3 0 8 -4 11 -10z
m155 -21 c0 -11 -4 -18 -10 -14 -5 3 -7 12 -3 20 7 21 13 19 13 -6z m-120 -14
c39 -8 83 -22 98 -31 l27 -15 -30 6 c-64 14 -185 6 -232 -15 -51 -23 -63 -24
-63 -10 0 14 43 30 125 45 l70 13 -55 2 c-30 1 -75 1 -99 0 -29 -1 -41 2 -37
9 10 16 113 14 196 -4z m-37 -63 c-2 -10 3 -25 12 -32 14 -12 18 -12 26 1 4 8
6 22 3 32 -3 11 0 17 10 17 17 0 22 -45 8 -66 -13 -21 -56 -9 -74 21 -18 30
-16 45 7 45 8 0 11 -7 8 -18z m111 1 c-2 -10 0 -24 5 -32 8 -13 12 -13 26 -1
15 13 17 12 14 -4 -8 -41 -53 -22 -65 27 -5 20 -2 27 9 27 9 0 14 -7 11 -17z
m-154 -37 c0 -46 -29 -53 -65 -16 -22 23 -24 28 -11 33 9 4 16 1 16 -6 0 -7 9
-18 21 -25 19 -12 20 -11 19 15 -3 39 -1 45 10 38 6 -3 10 -21 10 -39z m-86
-43 c5 -17 3 -23 -7 -23 -9 0 -18 -6 -20 -12 -3 -8 -6 -6 -6 5 -1 9 4 17 10
17 8 0 9 11 5 33 -6 34 6 21 18 -20z m191 -32 c-5 -8 -11 -9 -19 -2 -9 7 -16
7 -24 -1 -16 -16 -16 5 -1 34 l11 20 20 -20 c11 -11 17 -25 13 -31z m77 14 c8
-18 8 -29 1 -36 -8 -8 -13 -5 -18 11 -6 20 -8 20 -19 4 -19 -25 -28 -1 -10 24
20 29 32 28 46 -3z m-167 -1 c20 -20 11 -32 -10 -14 -13 11 -15 9 -15 -11 0
-15 -3 -20 -10 -13 -10 10 -2 54 10 54 5 0 16 -7 25 -16z m797 -10 c-5 -24
-31 -54 -48 -54 -8 0 -11 6 -8 15 4 8 10 13 15 10 9 -6 33 34 25 43 -3 3 -6 0
-6 -6 0 -7 -5 -12 -11 -12 -8 0 -7 5 1 15 17 20 36 13 32 -11z m-861 -31 c13
-15 12 -16 -9 -11 -19 5 -22 3 -16 -14 4 -15 2 -19 -7 -16 -8 3 -15 17 -17 31
-3 21 1 27 16 27 11 0 26 -8 33 -17z m937 -28 c-6 -11 -19 -30 -30 -42 -16
-17 -23 -19 -33 -10 -15 14 -6 38 27 74 16 17 23 19 33 10 9 -9 10 -18 3 -32z
m96 -1 c4 -11 2 -15 -8 -11 -8 3 -17 -1 -20 -9 -10 -25 -7 -34 9 -34 17 0 18
-2 9 -24 -3 -9 -13 -16 -21 -16 -8 0 -11 -5 -7 -12 4 -6 3 -8 -2 -5 -17 10
-14 62 6 95 23 37 26 38 34 16z m78 -46 c-9 -9 -12 -4 -11 23 0 32 1 33 11 11
8 -17 8 -26 0 -34z m-991 25 c12 21 39 23 39 2 0 -18 21 -20 38 -3 8 8 14 5
23 -15 7 -15 19 -27 26 -27 8 0 11 -4 8 -10 -10 -17 -37 -11 -42 8 -3 14 -11
18 -28 15 -12 -3 -26 0 -30 7 -5 8 -11 8 -22 -1 -11 -10 -19 -10 -34 -1 -16
10 -19 9 -19 -3 0 -14 -4 -17 -32 -19 -7 -1 -19 -9 -26 -18 -7 -10 -20 -18
-28 -18 -8 0 -14 -9 -14 -20 0 -28 -21 -70 -35 -70 -17 0 -14 62 3 68 6 2 12
15 12 28 0 21 3 24 25 18 22 -5 25 -3 25 21 0 24 3 26 25 21 18 -5 27 -1 36
16 11 21 12 21 26 2 13 -18 15 -18 24 -1z m729 4 c0 -7 -6 -20 -12 -29 -16
-21 -61 -7 -52 16 5 13 15 17 57 25 4 0 7 -5 7 -12z m-900 -7 c0 -5 -4 -10
-10 -10 -5 0 -10 5 -10 10 0 6 5 10 10 10 6 0 10 -4 10 -10z m1008 -60 c9 -36
8 -40 -9 -40 -26 0 -69 21 -69 34 0 10 45 43 61 45 4 1 11 -17 17 -39z m-770
6 c11 -11 -16 -29 -30 -20 -7 5 -22 9 -32 9 -11 0 -21 6 -24 14 -4 11 4 13 37
8 24 -3 45 -8 49 -11z m-98 -4 c0 -4 -10 -12 -22 -17 -13 -6 -24 -20 -26 -32
-2 -15 -10 -23 -23 -23 -31 0 -20 30 20 57 35 24 51 29 51 15z m980 -56 c-5
-5 -20 -6 -34 -2 l-26 6 22 31 23 31 12 -29 c6 -15 8 -32 3 -37z m-828 27 c10
-9 18 -23 18 -32 -1 -14 -2 -13 -11 2 -5 9 -19 17 -29 17 -11 0 -20 7 -20 15
0 20 19 19 42 -2z m-91 -16 c-13 -13 -26 -3 -16 12 3 6 11 8 17 5 6 -4 6 -10
-1 -17z m636 3 c1 -17 -1 -18 -17 -8 -14 9 -16 14 -7 20 18 12 23 10 24 -12z
m46 -5 c-3 -8 -9 -15 -14 -15 -10 0 -12 24 -3 33 11 11 24 -3 17 -18z m-748
-6 c-4 -5 -13 -9 -22 -9 -13 0 -13 3 -3 15 13 15 35 11 25 -6z m108 -10 c5
-18 3 -26 -8 -26 -20 0 -27 25 -12 42 6 7 12 12 13 11 1 0 4 -13 7 -27z m42
-9 c3 -5 -1 -10 -9 -10 -9 0 -16 5 -16 10 0 6 4 10 9 10 6 0 13 -4 16 -10z
m505 -10 c-13 -25 5 -27 19 -2 9 15 10 15 11 0 0 -20 -28 -50 -41 -43 -13 9
-11 39 3 53 17 17 20 15 8 -8z m134 5 c6 -16 -3 -19 -28 -9 -9 3 -13 10 -10
15 8 14 31 11 38 -6z m-871 -31 c-14 -22 -14 -29 -4 -46 10 -17 10 -22 0 -29
-17 -10 -29 7 -29 41 0 35 12 49 48 59 1 1 -5 -11 -15 -25z m54 6 c1 -11 0
-20 -2 -20 -2 0 -9 9 -15 20 -8 15 -8 20 3 20 7 0 13 -9 14 -20z m890 5 c20
-20 15 -25 -20 -18 -22 4 -25 8 -16 19 14 18 17 17 36 -1z m48 -14 c-9 -16
-25 -3 -18 15 4 10 9 12 15 6 6 -6 7 -15 3 -21z m-183 7 c-7 -7 -12 -19 -12
-27 0 -9 6 -7 20 9 11 13 20 18 20 12 0 -18 -39 -54 -50 -47 -22 14 -3 65 24
65 6 0 5 -5 -2 -12z m-658 -14 c19 -18 19 -20 6 -45 -19 -34 -80 -19 -80 21 0
38 46 53 74 24z m880 1 c4 -10 -1 -15 -16 -15 -17 0 -18 2 -8 15 7 8 14 15 15
15 2 0 5 -7 9 -15z m-834 1 c0 -3 -4 -8 -10 -11 -5 -3 -10 -1 -10 4 0 6 5 11
10 11 6 0 10 -2 10 -4z m680 -5 c0 -6 -4 -12 -10 -16 -5 -3 -6 -13 -3 -21 5
-13 9 -10 19 12 10 24 13 25 13 8 1 -30 -25 -62 -39 -47 -13 12 -4 73 11 73 5
0 9 -4 9 -9z m-926 -38 c-1 -14 4 -36 12 -47 8 -11 14 -28 14 -37 0 -9 9 -19
20 -22 11 -3 20 -13 20 -22 0 -11 5 -15 14 -12 8 3 20 -1 27 -9 7 -8 20 -12
31 -8 10 3 25 1 33 -6 9 -7 15 -8 20 0 3 5 17 10 31 10 13 0 24 5 24 10 0 6 9
10 19 10 10 0 21 7 25 15 6 17 36 21 36 5 0 -5 -4 -10 -10 -10 -5 0 -10 -9
-10 -20 0 -18 -3 -19 -21 -10 -17 10 -21 8 -26 -10 -4 -15 -11 -19 -25 -14
-13 4 -24 -1 -33 -13 -13 -17 -14 -17 -30 2 -11 14 -18 16 -21 8 -8 -18 -44
-16 -44 2 0 11 -8 15 -27 13 -24 -3 -28 0 -25 20 3 19 -1 22 -29 22 -30 0 -31
2 -25 30 3 17 2 30 -3 30 -10 0 -20 68 -13 87 7 22 19 5 16 -24z m85 23 c9
-10 8 -15 -4 -20 -8 -3 -15 -4 -15 -2 0 3 -3 11 -6 20 -8 20 9 21 25 2z m211
-2 c0 -17 -22 -14 -28 4 -2 7 3 12 12 12 9 0 16 -7 16 -16z m685 -13 c-3 -6
-11 -11 -17 -11 -6 0 -6 6 2 15 14 17 26 13 15 -4z m-712 -27 c-7 -19 12 -18
31 1 13 14 15 13 13 -5 -1 -15 -8 -20 -28 -20 -15 0 -36 -3 -46 -6 -17 -5 -17
-5 0 9 12 10 14 17 8 22 -18 11 -12 23 8 18 12 -3 17 -11 14 -19z m727 -19
c-18 -22 -30 -18 -29 8 0 21 1 21 9 2 5 -11 9 -15 10 -10 8 43 12 50 17 32 3
-10 -1 -24 -7 -32z m44 19 c-5 -19 -4 -25 5 -20 6 4 11 17 12 29 0 12 3 16 6
9 8 -21 -6 -62 -22 -62 -15 0 -22 50 -8 63 12 12 13 7 7 -19z m-834 -24 c0 -5
-4 -10 -10 -10 -5 0 -10 5 -10 10 0 6 5 10 10 10 6 0 10 -4 10 -10z m-73 -17
c4 -9 10 -10 24 -2 13 7 19 6 19 -1 0 -6 -7 -13 -15 -16 -20 -8 -19 -40 1 -48
8 -3 27 -3 41 0 18 5 24 3 19 -5 -4 -6 -22 -11 -41 -11 -35 0 -35 1 -50 64 -4
22 -9 26 -15 17 -9 -15 -40 -8 -40 9 0 14 51 8 57 -7z m730 -5 c-3 -8 -6 -5
-6 6 -1 11 2 17 5 13 3 -3 4 -12 1 -19z m-789 -8 c7 -11 21 -20 32 -20 11 0
20 -7 20 -15 0 -31 -59 -5 -80 36 -15 27 11 26 28 -1z m242 13 c0 -13 -54 -63
-68 -63 -9 0 -4 8 12 21 14 11 26 27 26 35 0 8 7 14 15 14 8 0 15 -3 15 -7z
m599 -30 c1 25 21 11 22 -16 0 -21 1 -21 9 -2 9 22 15 12 23 -35 4 -24 4 -24
6 3 2 47 21 30 22 -20 l1 -48 13 40 13 40 0 -40 c0 -22 -3 -51 -7 -63 -6 -22
-11 -18 -54 46 -26 38 -56 77 -66 86 -11 10 -17 25 -14 33 5 11 9 8 19 -13 9
-20 13 -24 13 -11z m-649 23 c0 -2 -7 -9 -15 -16 -12 -10 -15 -10 -15 4 0 9 7
16 15 16 8 0 15 -2 15 -4z m515 -40 c47 -48 100 -140 89 -157 -3 -6 -14 12
-24 40 -25 76 -88 134 -132 124 -20 -5 -21 -2 -12 21 10 26 32 18 79 -28z
m-582 9 c0 -6 -7 -11 -16 -13 -12 -3 -15 1 -11 13 7 17 25 17 27 0z m857 -15
c0 -5 -5 -10 -11 -10 -5 0 -7 5 -4 10 3 6 8 10 11 10 2 0 4 -4 4 -10z m-305
-10 c3 -5 -1 -10 -9 -10 -9 0 -16 5 -16 10 0 6 4 10 9 10 6 0 13 -4 16 -10z
m8 -37 c-7 -18 -33 -17 -33 1 0 8 8 14 19 13 11 0 17 -6 14 -14z m127 7 c0 -5
-4 -10 -10 -10 -5 0 -10 5 -10 10 0 6 5 10 10 10 6 0 10 -4 10 -10z m-190 -10
c0 -5 -4 -10 -10 -10 -5 0 -10 5 -10 10 0 6 5 10 10 10 6 0 10 -4 10 -10z m30
-21 c0 -5 -4 -9 -10 -9 -5 0 -10 7 -10 16 0 8 5 12 10 9 6 -3 10 -10 10 -16z
m-708 -32 c-5 -20 -4 -21 12 -8 9 8 20 11 24 7 9 -9 -28 -38 -43 -33 -13 4
-19 33 -11 53 9 23 25 7 18 -19z m678 13 c19 -14 22 -22 13 -31 -8 -8 -14 -6
-23 10 l-11 22 -19 -23 c-22 -26 -25 -20 -8 17 13 30 16 30 48 5z m100 6 c0
-2 -9 -6 -20 -9 -11 -3 -18 -1 -14 4 5 9 34 13 34 5z m138 -19 c2 -10 -3 -17
-12 -17 -18 0 -29 16 -21 31 9 14 29 6 33 -14z m-588 -12 c0 -29 -34 -36 -44
-9 -8 22 3 33 14 14 8 -12 10 -12 16 3 9 24 14 21 14 -8z m340 -21 c0 -8 -7
-14 -15 -14 -17 0 -18 2 -9 24 7 18 24 12 24 -10z m80 11 c0 -12 -19 -12 -23
0 -4 9 -1 12 9 8 7 -3 14 -7 14 -8z m-669 -12 c0 -11 3 -13 6 -5 5 13 33 17
33 4 0 -5 -9 -17 -19 -26 -18 -16 -20 -16 -35 5 -15 22 -13 39 5 39 5 0 9 -8
10 -17z m639 -4 c0 -5 -7 -9 -15 -9 -15 0 -20 12 -9 23 8 8 24 -1 24 -14z m95
11 c-3 -5 -10 -10 -16 -10 -5 0 -9 5 -9 10 0 6 7 10 16 10 8 0 12 -4 9 -10z
m-552 -30 c-6 -24 -26 -26 -43 -5 -17 20 -5 32 15 15 12 -10 15 -10 15 4 0 10
4 15 9 12 5 -3 7 -15 4 -26z m-86 8 c10 14 12 14 13 2 0 -8 -4 -21 -9 -29 -8
-12 -12 -12 -25 -2 -9 8 -16 21 -15 30 0 15 1 14 12 -1 10 -15 12 -15 24 0z
m443 2 c0 -5 -5 -10 -11 -10 -5 0 -7 5 -4 10 3 6 8 10 11 10 2 0 4 -4 4 -10z
m-623 -37 c-3 -10 -5 -4 -5 12 0 17 2 24 5 18 2 -7 2 -21 0 -30z m349 15 c-25
-14 -20 -48 7 -48 21 -1 21 -1 3 -11 -14 -9 -20 -8 -27 2 -13 21 -11 67 4 72
20 7 31 -5 13 -15z m422 11 c-2 -6 -8 -10 -13 -10 -5 0 -11 4 -13 10 -2 6 4
11 13 11 9 0 15 -5 13 -11z m190 -12 c4 -20 -25 -34 -40 -19 -15 15 -1 44 19
40 10 -2 19 -11 21 -21z m-902 -26 c-9 -10 -16 -25 -16 -34 0 -10 -5 -14 -15
-11 -21 8 -19 24 6 51 25 26 48 20 25 -6z m798 13 c3 -8 2 -12 -4 -9 -6 3 -10
10 -10 16 0 14 7 11 14 -7z m-549 -35 c9 -16 14 -29 11 -29 -2 0 -11 -3 -19
-6 -11 -4 -14 0 -11 13 6 24 -10 48 -26 38 -7 -5 -10 -19 -6 -37 4 -21 2 -28
-7 -26 -21 8 -19 45 4 67 25 24 33 21 54 -20z m398 30 c62 -28 71 -164 14
-204 -62 -44 -123 9 -90 78 16 32 38 35 53 8 14 -27 13 -30 -12 -40 -22 -8
-22 -9 -4 -17 13 -5 23 -2 32 10 14 20 9 41 -14 69 -20 23 -37 22 -62 -5 -38
-41 -24 -162 26 -219 13 -15 9 -17 -42 -22 -30 -3 -62 -3 -69 -1 -17 7 -28 54
-27 119 1 87 97 235 152 235 11 0 30 -5 43 -11z m-595 -36 c6 -20 10 -39 8
-40 -2 -2 -16 -1 -31 3 -19 5 -23 10 -16 17 6 6 11 21 11 34 0 35 15 27 28
-14z m100 -9 c8 -27 7 -34 -4 -34 -7 0 -11 6 -8 13 2 7 -2 21 -9 32 -14 18
-15 18 -26 -4 -10 -17 -10 -26 0 -37 12 -15 2 -19 -18 -6 -9 6 -10 17 -3 44 9
30 14 35 34 31 16 -3 26 -15 34 -39z m602 27 c0 -5 -6 -14 -14 -20 -10 -9 -15
-8 -19 3 -3 8 -3 17 0 20 9 9 33 7 33 -3z m70 -16 c0 -8 -7 -15 -15 -15 -26 0
-18 20 13 29 1 1 2 -6 2 -14z m-68 -57 c-15 -15 -26 -4 -18 18 5 13 9 15 18 6
9 -9 9 -15 0 -24z m78 7 c0 -9 -6 -12 -15 -9 -8 4 -12 10 -9 15 8 14 24 10 24
-6z m-825 -65 c-24 -25 -26 -32 -15 -45 7 -9 21 -13 31 -10 11 4 19 2 19 -4 0
-5 -10 -13 -22 -17 -44 -14 -65 54 -26 87 34 30 44 22 13 -11z m138 21 c-44
-38 -91 -69 -96 -64 -11 10 57 70 81 70 13 0 20 -3 15 -6z m609 -23 c-15 -15
-26 -4 -18 18 5 13 9 15 18 6 9 -9 9 -15 0 -24z m-392 -15 c26 -24 33 -39 41
-96 10 -74 6 -90 -19 -85 -14 3 -16 14 -14 71 5 82 -13 117 -58 117 -49 0 -81
-70 -45 -100 13 -10 19 -10 35 5 11 10 20 14 20 9 0 -18 -24 -34 -50 -34 -55
0 -68 58 -24 109 33 40 73 41 114 4z m470 15 c0 -7 -8 -26 -19 -41 -16 -25
-19 -26 -31 -11 -12 14 -11 15 5 12 23 -4 34 30 13 43 -9 6 -7 9 10 9 12 0 22
-6 22 -12z m-805 -17 c3 -5 1 -12 -5 -16 -5 -3 -10 1 -10 9 0 18 6 21 15 7z
m90 -11 c-3 -5 -20 -19 -38 -30 -32 -22 -32 -22 3 9 37 32 45 37 35 21z m33
-53 c-11 -31 -36 -75 -55 -97 -28 -32 -41 -40 -69 -40 -21 0 -33 4 -29 10 3 6
2 10 -3 10 -5 0 -9 7 -9 15 0 8 4 15 9 15 5 0 7 4 4 8 -8 13 6 26 81 76 40 26
75 52 79 57 15 25 11 -2 -8 -54z m584 31 c-15 -15 -26 -4 -18 18 5 13 9 15 18
6 9 -9 9 -15 0 -24z m-404 -13 c3 -17 1 -17 -7 -5 -10 13 -12 13 -20 0 -12
-18 -26 -6 -17 15 8 22 40 15 44 -10z m380 -23 c2 -7 -3 -12 -12 -12 -9 0 -16
7 -16 16 0 17 22 14 28 -4z m-688 -8 c0 -8 -19 -13 -24 -6 -3 5 1 9 9 9 8 0
15 -2 15 -3z m560 -4 c0 -5 -4 -10 -10 -10 -5 0 -10 5 -10 10 0 6 5 10 10 10
6 0 10 -4 10 -10z m192 2 c11 -4 14 -12 9 -20 -6 -9 -12 -8 -26 8 -18 20 -13
24 17 12z m-152 -12 c0 -5 -4 -10 -10 -10 -5 0 -10 5 -10 10 0 6 5 10 10 10 6
0 10 -4 10 -10z m40 0 c0 -5 -4 -10 -10 -10 -5 0 -10 5 -10 10 0 6 5 10 10 10
6 0 10 -4 10 -10z m-670 -14 c0 -2 -8 -10 -17 -17 -16 -13 -17 -12 -4 4 13 16
21 21 21 13z m761 -33 c11 3 19 1 19 -4 0 -5 -3 -9 -7 -10 -5 0 -22 -2 -38 -3
-30 -3 -34 5 -26 54 1 2 8 -6 17 -19 11 -15 23 -21 35 -18z m-543 -16 l22 -23
-36 -13 c-19 -7 -37 -11 -40 -9 -6 7 17 68 25 68 4 0 17 -10 29 -23z m453 7
c12 -14 11 -16 -5 -13 -11 2 -21 10 -24 17 -5 17 13 15 29 -4z m126 -40 c4
-11 -1 -22 -12 -31 -22 -16 -35 -13 -49 10 -8 13 -7 20 4 27 23 15 50 12 57
-6z m67 -5 c-7 -11 -34 -12 -34 -1 0 14 11 21 26 15 8 -3 11 -9 8 -14z m-176
-12 c6 -7 9 -22 7 -32 -2 -11 -4 -23 -4 -27 -1 -4 -14 -14 -30 -22 -24 -13
-31 -13 -49 0 -26 18 -40 73 -21 85 21 13 85 11 97 -4z m-330 -24 c6 -40 -68
-58 -91 -22 -20 31 -1 50 45 47 35 -2 44 -7 46 -25z m178 3 c10 -43 1 -70 -28
-80 -42 -15 -80 3 -92 41 -13 46 5 63 65 63 43 0 49 -3 55 -24z m364 20 c0 -3
-4 -8 -10 -11 -5 -3 -10 -1 -10 4 0 6 5 11 10 11 6 0 10 -2 10 -4z m-690 -24
c0 -26 -18 -40 -46 -34 -30 5 -31 16 -2 36 30 21 48 20 48 -2z m620 -2 c0 -5
-4 -10 -10 -10 -5 0 -10 5 -10 10 0 6 5 10 10 10 6 0 10 -4 10 -10z m40 -14
c0 -7 -9 -16 -20 -19 -23 -6 -26 3 -8 21 16 16 28 15 28 -2z m27 -18 c-3 -7
-5 -2 -5 12 0 14 2 19 5 13 2 -7 2 -19 0 -25z m-929 -23 c5 -16 13 -38 17 -47
6 -14 2 -18 -18 -18 -39 0 -50 21 -36 70 13 43 20 43 37 -5z m94 3 c-35 -35
-36 -35 -46 4 -6 25 -4 27 31 30 21 2 40 2 42 1 2 -1 -10 -17 -27 -35z m58 13
c0 -13 -26 -32 -33 -24 -8 7 11 33 24 33 5 0 9 -4 9 -9z m605 -11 c-10 -11
-20 -18 -23 -15 -7 6 18 35 31 35 5 0 2 -9 -8 -20z m252 -28 c-8 -11 -7 -13 8
-10 10 1 20 -3 22 -9 3 -7 -1 -13 -8 -13 -8 0 -5 -6 7 -16 18 -15 18 -15 -6
-10 -22 4 -23 4 -7 -8 32 -24 18 -38 -14 -15 l-32 22 18 -27 c26 -39 12 -42
-27 -6 -22 21 -29 33 -20 37 22 9 45 37 34 41 -8 2 -8 10 0 27 8 18 13 21 23
12 10 -9 10 -16 2 -25z m-107 8 c-14 -11 -67 -34 -118 -51 -96 -34 -174 -87
-187 -129 -6 -19 -45 -29 -45 -11 0 19 83 101 123 120 24 12 81 32 127 45 45
14 87 29 93 35 6 6 16 11 22 11 5 0 -1 -9 -15 -20z m-660 -10 c-11 -20 -40
-28 -40 -10 0 9 28 29 43 30 4 0 3 -9 -3 -20z m188 -9 c3 -8 -1 -12 -9 -9 -7
2 -15 10 -17 17 -3 8 1 12 9 9 7 -2 15 -10 17 -17z m182 5 c0 -7 -6 -19 -14
-25 -18 -15 -30 11 -13 28 15 15 27 14 27 -3z m-300 -6 c12 -8 12 -10 -3 -16
-20 -7 -47 1 -47 16 0 12 30 13 50 0z m400 1 c0 -13 -29 -35 -37 -28 -7 8 15
37 28 37 5 0 9 -4 9 -9z m241 -8 c-10 -19 -63 -70 -96 -93 -11 -8 7 14 40 48
63 66 71 72 56 45z m-791 -2 c0 -10 -25 -21 -48 -21 -15 1 -14 3 2 15 22 17
46 20 46 6z m484 -24 c-2 -7 -13 -18 -24 -25 -17 -11 -20 -10 -20 7 0 11 8 24
17 30 21 11 34 5 27 -12z m-467 -22 c-4 -8 -11 -15 -17 -15 -14 0 -13 27 3 33
16 6 21 1 14 -18z m68 15 c-3 -5 -13 -10 -21 -10 -8 0 -14 5 -14 10 0 6 9 10
21 10 11 0 17 -4 14 -10z m285 -5 c0 -9 -6 -12 -15 -9 -8 4 -15 10 -15 15 0 5
7 9 15 9 8 0 15 -7 15 -15z m247 -11 c-26 -13 -68 -45 -94 -70 -53 -50 -90
-58 -53 -11 26 33 85 72 138 91 58 21 61 17 9 -10z m78 16 c-4 -6 -24 -19 -45
-30 -22 -11 -55 -36 -74 -55 -20 -19 -43 -35 -53 -35 -23 1 39 53 116 97 63
36 65 37 56 23z m-868 -6 l22 -6 -22 -30 c-20 -27 -23 -28 -34 -12 -17 23 -17
54 0 54 6 0 22 -3 34 -6z m591 -23 c2 -13 -1 -28 -6 -33 -13 -13 -34 25 -26
47 9 22 28 13 32 -14z m-643 -18 c17 -41 15 -48 -14 -38 -21 6 -27 29 -15 59
9 23 12 20 29 -21z m445 26 c0 -6 6 -7 12 -3 18 11 48 12 48 2 0 -4 7 -8 15
-8 8 0 15 -4 15 -10 0 -5 7 -10 16 -10 10 0 14 -6 11 -14 -4 -9 3 -16 19 -20
30 -8 30 -52 0 -60 -22 -6 -39 11 -31 31 2 7 -2 10 -11 6 -17 -6 -18 8 -1 27
10 12 9 12 -5 1 -21 -16 -38 -7 -39 22 -1 17 -2 18 -6 5 -2 -10 -13 -18 -24
-18 -11 0 -19 7 -20 18 -1 15 -2 15 -6 0 -6 -23 -30 -30 -47 -13 -19 20 -32
19 -16 0 15 -19 -4 -47 -26 -38 -10 4 -13 -1 -12 -18 2 -17 -3 -24 -22 -29
-24 -6 -25 -6 -3 -12 17 -5 21 -11 17 -32 -3 -16 0 -26 7 -26 8 0 9 -11 5 -32
-4 -20 -3 -28 3 -19 7 10 14 9 35 -10 33 -29 35 -60 4 -55 -13 2 -22 8 -21 14
1 6 -11 13 -27 17 -20 4 -27 11 -23 21 3 8 -3 22 -14 32 -12 10 -19 29 -18 47
1 17 -3 35 -7 42 -6 7 -4 15 4 20 7 4 13 13 14 18 3 24 17 55 26 55 13 0 38
26 38 39 0 6 7 8 15 5 8 -4 15 -2 15 2 0 5 14 10 30 11 17 1 30 -2 30 -8z
m-270 -6 c0 -3 -7 -15 -17 -25 -28 -31 -73 -18 -59 17 5 15 76 22 76 8z m90
-18 c-7 -9 -15 -13 -17 -11 -7 7 7 26 19 26 6 0 6 -6 -2 -15z m628 -11 c-10
-20 -62 -54 -85 -54 -15 0 73 74 94 79 2 1 -3 -11 -9 -25z m109 0 c14 -13 14
-17 2 -25 -12 -7 -46 -3 -58 7 -6 5 20 34 31 34 5 0 17 -7 25 -16z m-792 -33
c-7 -24 -35 -29 -35 -6 0 13 31 38 38 30 2 -2 1 -13 -3 -24z m-115 -10 c0 -13
-37 -24 -50 -16 -6 4 -8 11 -5 16 8 12 55 12 55 0z m-100 -15 c0 -7 -6 -19
-14 -25 -11 -9 -15 -8 -20 5 -10 26 -7 34 14 34 11 0 20 -6 20 -14z m896 -3
c-3 -10 -8 -29 -11 -43 -3 -14 -23 -39 -43 -55 -20 -16 -31 -22 -24 -13 8 10
10 23 6 29 -4 8 -3 9 5 5 8 -6 11 3 9 29 -2 27 3 41 17 51 27 20 47 18 41 -3z
m152 -7 c8 -38 -17 -42 -51 -8 l-32 33 40 -3 c29 -2 41 -8 43 -22z m-1089 -18
c13 -36 11 -41 -13 -32 -10 4 -16 17 -16 35 0 38 15 37 29 -3z m262 -11 c-13
-13 -15 1 -4 30 7 17 8 17 11 -1 2 -10 -1 -23 -7 -29z m269 28 c17 -9 30 -20
30 -25 0 -13 -27 -13 -35 0 -12 19 -54 11 -70 -14 -13 -19 -14 -28 -4 -50 14
-31 6 -44 -16 -26 -41 34 -3 112 63 129 2 1 16 -6 32 -14z m705 -19 c-21 -31
-35 -33 -35 -5 0 11 5 17 10 14 6 -3 10 -1 10 5 0 6 5 8 10 5 6 -3 10 -1 10 6
0 7 3 10 6 7 3 -4 -2 -18 -11 -32z m-1055 -1 c0 -32 -43 -77 -64 -69 -26 10
-19 37 16 66 41 34 48 35 48 3z m855 -11 c15 -19 25 -37 22 -40 -9 -9 -99 19
-104 32 -9 24 5 44 30 44 16 0 34 -12 52 -36z m139 27 c8 -12 -3 -41 -15 -41
-5 0 -9 11 -9 25 0 25 14 34 24 16z m-1086 -23 c-3 -7 -13 -15 -24 -17 -16 -3
-17 -1 -5 13 16 19 34 21 29 4z m145 -55 c-3 -7 -11 -13 -19 -13 -15 0 -20 60
-7 74 10 10 32 -44 26 -61z m1054 40 c4 -12 -35 -53 -49 -53 -13 0 -9 24 8 48
16 23 35 25 41 5z m-767 -1 c0 -11 -46 -33 -53 -25 -3 3 -3 11 0 19 5 15 53
20 53 6z m210 -12 c0 -5 -4 -10 -10 -10 -5 0 -10 5 -10 10 0 6 5 10 10 10 6 0
10 -4 10 -10z m88 -8 c3 -9 -2 -13 -14 -10 -9 1 -19 9 -22 16 -3 9 2 13 14 10
9 -1 19 -9 22 -16z m206 -35 c16 -25 -16 -56 -38 -37 -9 7 -16 18 -16 25 0 7
-7 18 -15 25 -26 22 -16 29 22 16 20 -7 42 -20 47 -29z m119 29 c7 -17 -21
-58 -34 -51 -10 7 -12 48 -2 58 11 12 31 8 36 -7z m-1153 -5 c0 -5 -7 -16 -15
-25 -8 -8 -15 -19 -15 -25 0 -6 -5 -11 -11 -11 -7 0 -8 7 -4 18 4 9 10 25 12
35 5 17 33 24 33 8z m1200 -51 c-35 -50 -48 -3 -14 52 4 6 13 3 21 -5 14 -14
13 -19 -7 -47z m-230 7 c11 -31 -4 -42 -39 -28 -36 16 -45 35 -25 56 19 19 51
5 64 -28z m380 14 c0 -14 -36 -41 -55 -41 -15 0 -2 41 17 54 24 17 38 13 38
-13z m-830 -1 c0 -5 -4 -10 -10 -10 -5 0 -10 5 -10 10 0 6 5 10 10 10 6 0 10
-4 10 -10z m190 0 c0 -5 -4 -10 -10 -10 -5 0 -10 5 -10 10 0 6 5 10 10 10 6 0
10 -4 10 -10z m80 -15 c16 -19 0 -19 -26 0 -16 12 -16 14 -3 15 9 0 22 -7 29
-15z m103 -52 c-16 -12 -16 -13 0 -13 9 0 24 -14 33 -31 l16 -32 -29 7 c-15 4
-34 14 -40 23 -12 15 -13 15 -13 -5 0 -13 -6 -22 -14 -22 -8 0 -27 -16 -42
-35 -19 -26 -34 -35 -56 -35 -17 0 -31 -6 -35 -16 -9 -25 -55 -38 -69 -20 -14
20 -28 21 -21 1 4 -8 2 -17 -4 -20 -5 -4 -7 -10 -4 -15 3 -4 -2 -14 -11 -21
-29 -24 -46 -73 -49 -138 -3 -68 6 -101 28 -101 21 0 51 -26 43 -38 -5 -8 -13
-5 -26 8 -10 10 -35 22 -55 26 -19 3 -44 17 -54 30 -10 13 -24 24 -31 24 -10
0 -10 3 0 15 7 8 10 22 6 30 -3 9 11 31 39 59 31 31 48 59 56 90 7 28 17 46
26 46 8 0 11 -5 7 -12 -4 -7 -3 -8 5 -4 6 4 9 11 6 16 -7 11 16 26 45 28 50 3
160 73 160 102 0 6 4 10 9 10 5 0 17 14 25 32 18 34 21 51 6 28 -6 -9 -10 -10
-10 -3 0 6 10 19 22 27 21 15 23 14 35 -7 10 -18 9 -24 -4 -34z m202 47 c4 -6
-1 -23 -11 -38 -16 -25 -18 -25 -24 -7 -13 34 18 72 35 45z m170 0 c7 -11 -42
-37 -51 -27 -9 9 15 37 32 37 7 0 16 -4 19 -10z m-1233 -22 c-6 -6 -15 -8 -19
-4 -4 4 -1 11 7 16 19 12 27 3 12 -12z m108 -9 c0 -4 -9 -5 -20 -2 -11 3 -20
12 -20 19 0 12 4 12 20 2 11 -7 20 -16 20 -19z m130 21 c0 -5 -2 -10 -4 -10
-3 0 -8 5 -11 10 -3 6 -1 10 4 10 6 0 11 -4 11 -10z m-42 -7 c-1 -5 4 -19 11
-31 7 -13 11 -26 8 -28 -2 -2 -10 7 -17 21 -7 14 -17 25 -22 25 -5 0 -6 5 -3
10 7 12 26 14 23 3z m163 -92 c46 -30 62 -51 38 -51 -5 0 -7 -4 -4 -10 11 -17
-11 -11 -40 12 -41 32 -85 98 -85 127 0 25 1 25 21 -10 12 -20 43 -50 70 -68z
m756 72 c4 -12 -44 -49 -53 -41 -2 3 1 17 7 32 12 27 39 32 46 9z m-393 -19
c3 -8 -1 -14 -9 -14 -8 0 -15 2 -15 4 0 2 -3 12 -6 20 -4 12 -2 15 9 10 9 -3
18 -12 21 -20z m546 0 c0 -25 -56 -41 -75 -22 -3 3 6 15 20 26 27 22 55 20 55
-4z m-1260 1 c0 -8 5 -15 10 -15 6 0 10 7 10 15 0 8 7 15 15 15 8 0 14 -3 14
-7 -3 -20 2 -24 16 -13 15 12 16 12 19 -12 1 -7 9 -12 18 -10 9 1 19 -2 23 -8
3 -5 1 -10 -5 -10 -7 0 -9 -7 -6 -16 9 -24 -23 -45 -48 -32 -10 5 -32 8 -50 5
-25 -4 -36 1 -58 26 -30 33 -33 42 -18 52 6 3 10 1 10 -4 0 -6 7 -11 16 -11 8
0 12 5 9 10 -7 12 2 30 16 30 5 0 9 -7 9 -15z m934 -7 c8 -13 7 -21 -2 -30
-11 -11 -17 -9 -33 11 -10 12 -16 27 -13 33 9 13 35 6 48 -14z m234 4 c4 -13
-37 -33 -51 -25 -11 7 24 44 37 40 5 -2 12 -9 14 -15z m-1018 -7 c6 -8 10 -19
8 -24 -1 -5 -11 2 -21 15 -19 26 -8 34 13 9z m507 -30 c9 -25 -4 -29 -17 -6
-7 15 -7 21 0 21 6 0 13 -7 17 -15z m371 -7 c2 -11 -9 -20 -33 -28 -48 -16
-57 -4 -21 26 30 27 49 27 54 2z m-798 2 c0 -5 -4 -10 -10 -10 -5 0 -10 5 -10
10 0 6 5 10 10 10 6 0 10 -4 10 -10z m877 -6 c7 -19 -13 -34 -46 -34 l-24 0
23 25 c27 29 38 31 47 9z m59 -20 c-36 -26 -51 -10 -20 21 13 12 20 13 28 5 8
-8 6 -15 -8 -26z m-764 -84 c29 -13 54 -25 56 -25 5 -3 -21 -65 -28 -65 -16 0
-105 87 -132 129 -40 64 -35 78 11 28 22 -24 64 -54 93 -67z m-218 85 c3 -8 1
-15 -3 -15 -5 0 -11 7 -15 15 -3 8 -1 15 3 15 5 0 11 -7 15 -15z m409 -5 c3
-11 1 -20 -4 -20 -5 0 -9 9 -9 20 0 11 2 20 4 20 2 0 6 -9 9 -20z m714 0 c-1
-21 -10 -18 -13 5 -1 8 2 15 6 15 5 0 8 -9 7 -20z m-577 -4 c0 -3 -4 -8 -10
-11 -5 -3 -10 -1 -10 4 0 6 5 11 10 11 6 0 10 -2 10 -4z m95 -25 c17 -33 7
-46 -25 -36 -22 7 -26 35 -8 53 16 16 15 16 33 -17z m50 7 c0 -27 -15 -26 -33
0 -15 23 -15 24 9 20 15 -2 24 -10 24 -20z m-595 -43 c0 -36 -16 -98 -36 -143
-13 -27 -18 -31 -30 -21 -19 16 -18 30 11 86 13 27 27 68 31 92 8 47 24 38 24
-14z m-80 41 c0 -3 -4 -8 -10 -11 -5 -3 -10 -1 -10 4 0 6 5 11 10 11 6 0 10
-2 10 -4z m1096 -10 c10 -8 15 -18 11 -22 -4 -4 -17 2 -29 14 -25 25 -13 30
18 8z m-781 -6 c3 -5 1 -10 -4 -10 -6 0 -11 5 -11 10 0 6 2 10 4 10 3 0 8 -4
11 -10z m442 4 c-3 -3 -12 -4 -19 -1 -8 3 -5 6 6 6 11 1 17 -2 13 -5z m318
-24 c3 -5 2 -10 -4 -10 -5 0 -13 5 -16 10 -3 6 -2 10 4 10 5 0 13 -4 16 -10z
m-474 -21 c30 -21 31 -39 2 -39 -19 0 -55 39 -47 51 8 13 12 11 45 -12z m239
11 c0 -13 -11 -13 -30 0 -12 8 -11 10 8 10 12 0 22 -4 22 -10z m100 -6 c22 -9
37 -20 34 -26 -3 -5 -12 -4 -20 3 -12 10 -18 9 -30 -3 -14 -14 -14 -17 1 -32
10 -9 15 -19 13 -21 -3 -3 -15 6 -28 20 -13 14 -18 25 -12 25 15 0 16 27 0 36
-6 4 -17 -1 -25 -11 -12 -17 -9 -23 18 -51 l31 -32 -21 -31 c-27 -38 -36 -39
-39 -5 -6 72 -65 119 -137 109 -28 -4 -36 -2 -25 5 20 13 96 13 122 -1 16 -9
23 -7 36 10 20 25 30 26 82 5z m-1080 -25 c0 -13 -7 -19 -23 -19 -31 0 -38 8
-25 30 14 22 48 14 48 -11z m500 21 c0 -5 -5 -10 -11 -10 -5 0 -7 5 -4 10 3 6
8 10 11 10 2 0 4 -4 4 -10z m190 -17 l22 -28 -32 -3 c-36 -4 -60 12 -60 39 0
30 44 24 70 -8z m548 -22 c6 -40 -28 -22 -58 31 -9 16 -8 16 22 3 20 -8 34
-22 36 -34z m-1131 14 c-4 -8 -14 -15 -23 -15 -16 0 -16 2 1 20 20 22 31 20
22 -5z m1064 -30 c10 -4 19 -13 19 -20 0 -27 -22 -27 -47 -1 -21 23 -23 29
-11 43 12 15 13 15 16 0 2 -9 12 -19 23 -22z m-1315 8 c14 -14 18 -15 22 -4 3
9 9 2 17 -16 7 -17 30 -43 51 -59 60 -43 60 -44 26 -44 -25 0 -32 4 -32 19 0
10 -7 22 -16 25 -13 5 -15 1 -12 -25 l5 -31 -18 23 c-15 20 -21 21 -28 10 -5
-8 -7 -21 -4 -29 3 -8 -6 -2 -21 12 -14 15 -26 31 -26 36 0 6 -7 10 -15 10
-20 0 -19 16 1 24 8 3 12 11 9 17 -4 6 -13 8 -21 5 -8 -3 -14 1 -14 10 0 8 4
13 9 10 4 -3 17 1 27 9 24 18 19 18 40 -2z m434 -2 c0 -10 -24 -21 -46 -21 -8
0 -14 4 -14 9 0 5 9 7 20 4 11 -3 20 0 20 6 0 6 5 11 10 11 6 0 10 -4 10 -9z
m352 -8 c18 -9 40 -19 48 -23 21 -10 19 -44 -2 -48 -12 -2 -21 6 -27 22 -10
24 -38 46 -60 46 -6 0 -15 -10 -22 -21 -14 -26 3 -65 32 -72 24 -6 35 -35 20
-50 -10 -9 -22 -1 -53 36 -24 28 -48 47 -61 47 -19 0 -18 2 9 30 16 16 35 30
42 30 6 0 12 5 12 10 0 15 24 12 62 -7z m-672 3 c0 -3 -4 -8 -10 -11 -5 -3
-10 -1 -10 4 0 6 5 11 10 11 6 0 10 -2 10 -4z m65 -6 c-3 -5 -14 -10 -23 -9
-14 0 -13 2 3 9 27 11 27 11 20 0z m91 -19 c-18 -34 -71 -81 -93 -81 -18 0
-73 31 -73 42 0 4 18 8 40 8 46 0 99 19 119 43 20 25 23 20 7 -12z m757 18
c89 -40 61 -186 -59 -304 -65 -65 -205 -135 -228 -115 -24 19 -19 27 21 35
178 33 355 255 273 343 -40 43 -99 19 -131 -52 -15 -33 -19 -36 -19 -17 0 32
36 88 68 106 33 17 44 18 75 4z m-228 -66 c5 -17 2 -23 -10 -23 -30 0 -55 20
-55 45 0 47 49 30 65 -22z m-327 28 c3 -8 -1 -12 -9 -9 -7 2 -15 10 -17 17 -3
8 1 12 9 9 7 -2 15 -10 17 -17z m827 -19 c-6 -7 -35 18 -35 31 0 5 9 2 20 -8
11 -10 18 -20 15 -23z m9 -43 c-12 -20 -33 -7 -53 32 l-21 40 40 -32 c21 -17
37 -36 34 -40z m-928 24 c-11 -11 -19 6 -11 24 8 17 8 17 12 0 3 -10 2 -21 -1
-24z m54 16 c0 -5 -4 -9 -10 -9 -5 0 -10 7 -10 16 0 8 5 12 10 9 6 -3 10 -10
10 -16z m600 -13 c0 -20 -19 -31 -32 -18 -6 6 -7 15 -4 21 10 16 36 13 36 -3z
m-326 -40 c21 -33 21 -31 -15 -34 -38 -3 -59 13 -59 43 0 43 43 38 74 -9z
m163 22 c-3 -8 -6 -5 -6 6 -1 11 2 17 5 13 3 -3 4 -12 1 -19z m385 -8 c9 -17
14 -30 11 -30 -12 0 -43 33 -43 47 0 22 14 15 32 -17z m-1288 -25 c6 -28 5
-29 -9 -11 -8 11 -15 29 -15 40 0 28 16 8 24 -29z m976 14 c0 -5 -7 -9 -15 -9
-8 0 -15 7 -15 15 0 9 6 12 15 9 8 -4 15 -10 15 -15z m288 -9 c15 -12 38 -29
51 -39 20 -15 22 -20 12 -39 -16 -30 -51 -29 -51 1 0 24 -33 67 -50 67 -6 0
-10 7 -10 15 0 21 17 19 48 -5z m-738 2 c0 -13 -97 -42 -141 -42 -53 0 -50 20
4 21 23 0 60 6 82 14 50 16 55 17 55 7z m-349 -14 c1 -7 1 -19 0 -25 -1 -7 3
-13 9 -13 5 0 10 12 10 26 0 16 5 24 13 21 13 -4 11 -66 -3 -80 -4 -5 -17 -6
-29 -2 -17 5 -21 15 -21 46 0 21 5 39 10 39 6 0 11 -6 11 -12z m706 -33 c-6
-13 -11 -14 -28 -5 -11 7 -18 14 -15 17 3 3 13 0 22 -8 16 -13 16 -12 6 8 -17
31 -15 40 4 21 9 -9 14 -24 11 -33z m139 18 c-10 -10 -19 5 -10 18 6 11 8 11
12 0 2 -7 1 -15 -2 -18z m-953 -37 c12 -26 13 -37 4 -44 -32 -24 -38 -23 -52
12 -19 44 -19 57 0 32 19 -25 30 -15 15 13 -8 16 -8 21 3 21 7 0 21 -15 30
-34z m439 -23 c-2 -32 -10 -69 -18 -83 -13 -24 -13 -23 -14 23 0 41 21 117 33
117 2 0 2 -26 -1 -57z m202 37 c43 -18 58 -41 37 -55 -5 -3 -30 13 -56 35 -52
45 -48 49 19 20z m543 -7 c8 -12 10 -24 5 -27 -13 -8 -64 33 -56 45 9 15 35 6
51 -18z m-917 11 c0 -3 -5 -14 -10 -25 -6 -11 -7 -19 -1 -19 5 0 11 7 15 15 7
18 26 20 26 3 0 -7 -9 -24 -19 -37 -13 -17 -23 -22 -39 -16 -25 7 -27 20 -9
58 10 23 37 38 37 21z m140 -11 c-1 -10 -6 -31 -13 -46 l-12 -29 -20 23 c-16
18 -16 21 -2 10 22 -17 28 -11 29 28 1 17 5 31 10 31 4 0 8 -8 8 -17z m480
-40 c0 -7 -4 -13 -10 -13 -5 0 -10 6 -10 13 0 7 -5 18 -12 25 -9 9 -16 8 -32
-6 -14 -12 -17 -13 -11 -2 22 39 27 41 52 19 12 -13 23 -28 23 -36z m285 -9
c12 -7 16 -16 12 -27 -11 -28 -36 -19 -51 17 -8 19 -22 38 -31 44 -10 5 -15
14 -11 21 5 8 16 3 35 -16 14 -16 35 -33 46 -39z m-810 46 c-11 -5 -27 -9 -35
-9 -9 0 -8 4 5 9 11 5 27 9 35 9 9 0 8 -4 -5 -9z m423 -2 c20 -20 14 -28 -13
-16 -13 6 -22 15 -19 19 7 12 18 11 32 -3z m-160 -28 l23 -30 -29 0 c-37 0
-54 17 -41 42 13 25 22 23 47 -12z m342 20 c0 -5 -9 -10 -19 -10 -11 0 -28 -3
-38 -6 -12 -5 -15 -4 -8 4 9 9 30 17 58 21 4 0 7 -3 7 -9z m-180 -25 c28 -16
9 -21 -21 -5 -16 9 -21 7 -29 -12 -8 -22 -9 -22 -9 -2 -1 37 17 43 59 19z
m333 -28 c5 -16 6 -31 3 -34 -10 -10 -46 29 -46 49 0 29 32 18 43 -15z m-259
7 c2 -6 -2 -20 -9 -31 -13 -17 -14 -16 -9 7 l6 25 -20 -25 c-17 -21 -22 -22
-36 -11 -9 8 -14 16 -11 19 2 3 11 -1 20 -8 13 -10 15 -9 15 7 0 11 2 22 5 25
10 9 34 5 39 -8z m192 7 c-10 -15 40 -66 83 -86 42 -18 52 -40 29 -63 -30 -30
-80 7 -93 67 -3 16 -14 37 -25 48 -14 15 -16 23 -7 32 13 13 20 14 13 2z
m-946 -20 c0 -4 -6 -16 -14 -27 -15 -19 -15 -19 -37 3 l-23 22 25 9 c24 9 49
6 49 -7z m618 -16 c-1 -1 -14 -6 -27 -10 -24 -7 -24 0 2 33 9 11 12 10 20 -3
5 -9 7 -18 5 -20z m-538 -37 c0 -41 -8 -68 -20 -68 -5 0 -6 8 -3 19 3 11 -2
21 -11 24 -9 4 -16 2 -16 -4 0 -6 -5 -7 -11 -3 -6 3 -15 0 -20 -7 -7 -11 -9
-11 -9 -1 0 22 29 70 52 86 27 19 38 7 38 -46z m325 42 c3 -5 -3 -10 -15 -10
-12 0 -18 5 -15 10 3 6 10 10 15 10 5 0 12 -4 15 -10z m378 -16 c-27 -20 -39
-17 -18 6 10 11 22 17 27 14 5 -3 1 -12 -9 -20z m-143 5 c0 -5 -13 -15 -29
-20 -23 -8 -29 -16 -27 -35 2 -13 6 -27 9 -31 13 -12 7 -23 -12 -23 -10 0 -22
7 -25 16 -10 26 -7 34 12 27 15 -6 16 -5 2 11 -13 16 -12 20 5 32 10 8 27 14
37 14 10 0 18 5 18 10 0 6 2 10 5 10 3 0 5 -5 5 -11z m-730 -20 c21 -12 43
-32 49 -46 16 -35 14 -38 -10 -12 l-21 24 6 -24 c4 -18 2 -21 -7 -12 -13 13
-28 15 -26 4 1 -5 1 -15 0 -23 -1 -12 -3 -12 -15 0 -15 16 -33 110 -21 110 4
0 24 -10 45 -21z m360 11 c0 -5 -8 -13 -17 -19 -10 -5 -15 -13 -11 -17 4 -4
14 -1 22 5 10 9 16 9 21 1 9 -14 8 -14 -34 -29 -27 -9 -36 -9 -43 1 -13 22 -9
32 20 50 32 19 42 21 42 8z m416 -17 c-7 -7 -26 7 -26 19 0 6 6 6 15 -2 9 -7
13 -15 11 -17z m-260 -49 c13 -3 35 -3 48 0 19 5 26 1 31 -15 9 -28 -1 -35
-21 -14 -12 12 -26 15 -47 11 -23 -5 -33 -1 -44 14 -15 21 -63 28 -63 9 0 -5
-4 -8 -10 -4 -10 6 -4 31 13 52 7 9 17 5 39 -17 16 -17 40 -33 54 -36z m514
53 c0 -8 -3 -17 -7 -20 -9 -9 -34 13 -27 24 8 14 34 11 34 -4z m-786 -16 c22
-24 13 -41 -20 -41 -24 0 -30 13 -18 44 8 21 17 20 38 -3z m581 8 c7 -10 -21
-38 -37 -39 -12 0 -9 25 4 38 15 15 25 15 33 1z m-235 -8 c0 -10 -30 -24 -37
-17 -3 3 -2 9 2 15 8 13 35 15 35 2z m170 -1 c12 -8 9 -10 -12 -10 -16 0 -28
5 -28 10 0 13 20 13 40 0z m268 -86 c-21 -21 -33 -13 -58 38 -28 58 -14 67 34
19 37 -38 39 -42 24 -57z m-404 61 c-4 -8 -10 -12 -15 -9 -11 6 -2 24 11 24 5
0 7 -7 4 -15z m131 -5 c3 -5 -3 -10 -14 -10 -11 0 -23 5 -26 10 -3 6 3 10 14
10 11 0 23 -4 26 -10z m-477 -45 c12 -3 22 -12 22 -19 0 -22 -68 -76 -95 -76
-29 0 -33 15 -7 25 16 7 15 8 -3 15 -17 7 -17 9 -2 9 9 1 17 5 17 11 0 5 -8 6
-17 3 -16 -6 -16 -5 -4 10 11 14 11 17 0 17 -12 0 -12 2 0 9 13 9 37 7 89 -4z
m662 -14 c19 -16 32 -32 28 -36 -16 -16 -96 34 -84 54 10 16 17 14 56 -18z
m-830 -26 c19 -23 8 -50 -20 -50 -16 0 -26 6 -28 18 -4 18 14 47 28 47 4 0 13
-7 20 -15z m777 -19 c-4 -9 -11 -16 -18 -16 -6 0 -8 7 -5 16 3 9 6 21 6 27 0
8 3 8 11 0 7 -7 9 -19 6 -27z m-487 14 c0 -5 -9 -10 -20 -10 -11 0 -20 -4 -20
-10 0 -5 9 -10 20 -10 11 0 20 -4 20 -9 0 -5 -8 -8 -17 -6 -10 2 -28 4 -40 4
-27 1 -30 26 -5 40 22 13 62 14 62 1z m453 -10 c-3 -11 -9 -20 -14 -20 -11 0
-11 3 -3 24 9 23 23 20 17 -4z m-398 -60 c8 0 17 5 20 10 12 20 22 9 17 -17
-3 -16 -14 -36 -25 -45 -25 -22 -34 -23 -17 -3 18 21 -3 19 -23 -2 -21 -24
-18 -116 5 -139 12 -13 14 -23 7 -41 -5 -14 -7 -29 -4 -34 4 -5 -1 -6 -10 -3
-9 4 -21 26 -27 50 -15 55 -26 56 -31 2 -3 -36 -5 -39 -12 -20 -7 21 -8 21
-21 5 -16 -21 -18 -10 -3 18 5 11 14 17 18 14 9 -5 25 44 18 52 -6 6 -67 -88
-67 -104 0 -18 -17 -16 -28 3 -7 12 5 29 46 72 63 65 91 120 100 200 l6 57 9
-37 c5 -21 15 -38 22 -38z m-460 50 c3 -5 1 -10 -4 -10 -6 0 -11 5 -11 10 0 6
2 10 4 10 3 0 8 -4 11 -10z m555 -10 c-6 -11 -18 -20 -28 -20 -13 0 -12 4 8
20 31 25 33 25 20 0z m-544 -48 c-4 -3 -11 0 -16 8 -15 24 -11 33 6 15 9 -9
13 -19 10 -23z m285 -5 c-12 -32 -22 -34 -46 -7 -17 19 -17 20 16 34 38 16 44
11 30 -27z m489 35 c0 -13 -12 -22 -22 -16 -10 6 -1 24 13 24 5 0 9 -4 9 -8z
m30 -1 c0 -5 -7 -14 -15 -21 -16 -14 -18 -10 -9 14 6 17 24 22 24 7z m-262
-27 c27 -19 28 -34 3 -34 -10 0 -22 -8 -26 -17 -6 -17 -7 -17 -16 -1 -10 17
-2 68 10 68 4 0 17 -7 29 -16z m182 -3 c0 -11 -5 -32 -11 -48 l-12 -28 -9 33
c-9 34 -17 39 -36 20 -9 -9 -12 -9 -12 -1 0 16 40 43 62 43 11 0 18 -7 18 -19z
m296 -58 c-22 -41 -49 -77 -69 -91 -37 -25 -108 -38 -132 -25 -13 8 -13 11 -1
28 13 17 16 18 42 5 16 -8 32 -16 37 -18 4 -2 7 1 7 6 0 5 -9 12 -20 15 -11 3
-20 10 -20 16 0 14 35 14 63 0 21 -10 21 -9 -2 10 l-23 21 38 1 c22 0 33 3 27
6 -22 8 -14 23 12 23 14 0 24 3 23 8 -1 4 4 18 11 32 l14 25 -27 -24 c-14 -14
-29 -21 -33 -18 -3 4 -12 -2 -20 -13 -19 -27 -37 -26 -23 1 7 11 9 23 6 26 -3
3 -9 -3 -12 -13 -9 -24 -44 -64 -57 -64 -5 0 -7 6 -4 13 18 44 16 48 -7 15
-16 -22 -35 -38 -47 -38 -19 0 -18 1 4 38 30 48 81 73 170 81 40 4 74 6 75 5
2 -2 -12 -33 -32 -71z m-801 30 c35 -52 32 -63 -13 -63 -42 0 -79 21 -68 38 9
15 39 15 54 0 8 -8 12 -9 12 -1 0 6 -5 13 -12 15 -13 5 -19 48 -7 48 5 0 20
-17 34 -37z m935 27 c0 -5 -5 -10 -11 -10 -5 0 -7 5 -4 10 3 6 8 10 11 10 2 0
4 -4 4 -10z m-1140 -14 c0 -3 -4 -8 -10 -11 -5 -3 -10 -1 -10 4 0 6 5 11 10
11 6 0 10 -2 10 -4z m50 -48 c0 7 7 9 17 5 12 -5 14 -3 8 7 -5 9 -4 11 3 6 7
-4 12 -14 12 -21 0 -16 -57 -85 -71 -85 -12 0 -22 66 -15 96 l7 26 19 -23 c11
-12 20 -17 20 -11z m599 -34 c-6 -8 -15 -14 -20 -14 -16 0 -10 43 9 63 17 19
17 19 20 -7 2 -15 -2 -34 -9 -42z m122 49 c13 -16 12 -17 -3 -4 -17 13 -22 21
-14 21 2 0 10 -8 17 -17z m-448 -5 c15 -7 27 -19 27 -25 0 -16 -12 -17 -28 -1
-6 6 -15 9 -19 5 -3 -4 2 -14 13 -21 10 -8 16 -17 12 -21 -3 -4 -20 3 -37 16
-24 18 -28 26 -20 41 12 21 17 22 52 6z m253 -30 c3 -11 3 -22 0 -25 -10 -11
-56 28 -56 47 0 17 3 18 25 8 13 -6 27 -20 31 -30z m506 10 c-15 -15 -24 -6
-16 16 5 12 10 14 17 7 8 -8 8 -14 -1 -23z m-597 -18 c3 -5 1 -10 -4 -10 -6 0
-11 5 -11 10 0 6 2 10 4 10 3 0 8 -4 11 -10z m-345 -15 c16 -19 4 -35 -26 -35
-25 0 -28 7 -18 34 8 20 28 21 44 1z m930 -10 c0 -17 -17 -28 -30 -20 -7 4 -7
13 0 26 12 21 30 17 30 -6z m-305 -7 c31 -14 31 -22 3 -42 -25 -18 -58 -21
-58 -6 0 6 -10 8 -24 4 -33 -8 -51 3 -35 22 16 19 59 18 59 -1 0 -18 17 -20
23 -2 2 6 -3 17 -12 24 -14 11 -14 12 1 13 9 0 29 -5 43 -12z m-289 -15 c-2
-9 -8 -19 -15 -21 -9 -3 -9 -7 0 -18 16 -19 -10 -19 -36 0 -16 12 -17 16 -6
29 7 9 22 18 34 20 12 2 23 5 24 6 1 0 0 -7 -1 -16z m134 -13 c0 -11 -6 -20
-14 -20 -18 0 -29 16 -21 30 11 18 35 11 35 -10z m-379 -12 c22 -28 24 -38 4
-38 -8 0 -15 7 -15 15 0 8 -4 15 -10 15 -5 0 -10 -4 -10 -9 0 -6 5 -13 10 -16
13 -8 13 -25 0 -25 -13 0 -42 58 -35 70 10 17 36 11 56 -12z m319 2 c0 -17
-49 -35 -61 -23 -6 6 -8 16 -5 22 9 14 66 14 66 1z m490 -7 c0 -5 -5 -15 -10
-23 -9 -13 -11 -13 -19 0 -7 10 -6 17 2 22 15 10 27 10 27 1z m-952 -12 c19
-12 21 -76 2 -76 -8 0 -17 11 -21 25 l-7 25 -1 -27 c-1 -30 -20 -39 -22 -10 0
9 -3 29 -5 45 -4 23 -1 27 18 27 13 0 29 -4 36 -9z m492 -35 c0 -13 -7 -29
-15 -36 -12 -10 -15 -9 -15 8 0 27 10 52 21 52 5 0 9 -11 9 -24z m72 7 c22
-19 24 -43 4 -43 -14 0 -46 36 -46 52 0 14 23 9 42 -9z m138 -12 c0 -10 -6
-21 -14 -24 -11 -4 -11 -1 -2 19 13 29 16 30 16 5z m-411 -54 c1 -10 -3 -15
-9 -12 -5 3 -10 23 -9 43 1 33 2 34 9 12 4 -14 8 -33 9 -43z m588 37 c5 -14
-35 -26 -43 -13 -8 14 6 30 24 27 8 -2 17 -8 19 -14z m-737 -15 c-7 -11 -9
-33 -5 -47 6 -25 5 -25 -19 8 l-26 34 22 13 c33 18 40 16 28 -8z m488 -19 c14
-37 6 -42 -38 -22 -31 14 -33 16 -12 19 14 3 22 11 22 24 0 27 16 16 28 -21z
m-455 -28 c-5 -11 -8 -11 -21 1 -8 9 -12 23 -8 33 6 16 7 16 20 -2 8 -10 11
-24 9 -32z m271 32 c4 -9 13 -14 21 -10 22 8 18 -21 -4 -34 -32 -17 -41 -12
-41 25 0 36 13 47 24 19z m258 -6 c-7 -7 -12 -8 -12 -2 0 14 12 26 19 19 2 -3
-1 -11 -7 -17z m-612 -5 c11 -10 20 -27 20 -38 0 -19 -2 -18 -20 5 -12 16 -20
20 -20 11 0 -11 -4 -9 -15 5 -8 10 -15 22 -15 27 0 13 29 7 50 -10z m687 1 c5
-16 -29 -27 -38 -12 -4 6 -5 16 -2 21 7 11 35 5 40 -9z m-803 -13 c21 -23 4
-38 -18 -15 -17 17 -21 34 -8 34 5 0 17 -9 26 -19z m56 3 c0 -13 -3 -14 -15
-4 -8 6 -19 9 -25 5 -5 -3 -10 -1 -10 4 0 6 11 11 25 11 16 0 25 -6 25 -16z
m240 -22 c0 -7 -4 -10 -10 -7 -5 3 -10 16 -10 28 0 18 2 19 10 7 5 -8 10 -21
10 -28z m579 14 c10 -12 8 -17 -8 -25 -22 -12 -37 0 -27 24 7 19 20 19 35 1z
m-802 -18 c-3 -8 -6 -5 -6 6 -1 11 2 17 5 13 3 -3 4 -12 1 -19z m303 8 c0 16
48 5 55 -13 4 -13 3 -14 -10 -3 -8 7 -25 10 -40 6 -20 -5 -25 -3 -25 11 0 15
2 16 10 3 5 -8 10 -10 10 -4z m346 -25 c-9 -14 -33 -14 -41 -1 -4 6 -1 18 6
26 11 13 14 13 27 0 8 -8 11 -19 8 -25z m58 -7 c7 -17 0 -34 -14 -34 -11 0
-21 30 -14 41 8 14 21 11 28 -7z m-717 -9 c3 -9 2 -19 -1 -23 -8 -8 -38 10
-44 26 -6 18 38 14 45 -3z m558 -23 c-2 -3 -12 -1 -22 2 -15 6 -15 9 -3 16 13
8 35 -8 25 -18z m-465 -2 c38 -38 20 -57 -34 -35 -40 17 -45 29 -18 44 24 15
29 14 52 -9z m304 -2 c24 -22 30 -37 27 -65 -1 -9 -22 -13 -71 -13 l-70 0 0
29 c0 20 9 36 26 50 34 27 57 26 88 -1z m400 -1 c15 -24 -2 -34 -19 -11 -8 10
-15 23 -15 27 0 13 22 3 34 -16z m-566 -3 c15 -10 22 -25 22 -46 0 -27 -3 -30
-22 -24 -13 3 -40 9 -60 12 -28 5 -38 12 -38 25 0 20 36 49 60 49 9 0 26 -7
38 -16z m392 13 c0 -2 -9 -12 -20 -22 -17 -16 -20 -16 -20 -2 0 8 8 18 18 20
9 3 18 5 20 6 1 0 2 -1 2 -2z m-68 -29 c13 -11 32 -46 25 -49 -1 0 -30 -3 -64
-5 -58 -4 -63 -3 -63 15 0 40 68 65 102 39z m122 -4 c17 -16 21 -34 9 -35 -5
0 -25 -2 -45 -4 -30 -3 -38 -1 -38 12 0 17 28 42 47 43 6 0 19 -7 27 -16z m91
-4 c0 -9 -11 -16 -27 -18 -27 -3 -38 14 -21 32 12 12 48 2 48 -14z"/>
<path d="M2574 3136 c-6 -7 -15 -23 -19 -37 -8 -24 -7 -24 13 -5 12 10 19 22
17 26 -3 5 0 10 7 12 7 3 8 7 3 10 -6 3 -15 0 -21 -6z"/>
<path d="M2665 3050 c3 -5 8 -10 11 -10 2 0 4 5 4 10 0 6 -5 10 -11 10 -5 0
-7 -4 -4 -10z"/>
<path d="M1772 2898 c2 -13 10 -23 18 -23 8 0 16 10 18 23 3 17 -2 22 -18 22
-16 0 -21 -5 -18 -22z"/>
<path d="M1767 2319 c-42 -30 -57 -47 -57 -64 0 -60 50 -35 90 45 17 33 29 60
28 60 -2 0 -29 -18 -61 -41z m6 -41 c-20 -35 -53 -50 -53 -24 0 15 45 56 62
56 6 0 1 -15 -9 -32z"/>
<path d="M1737 2273 c-10 -9 -9 -23 2 -23 5 0 11 7 15 15 5 15 -5 20 -17 8z"/>
<path d="M2120 1524 c0 -14 3 -14 15 -4 8 7 15 14 15 16 0 2 -7 4 -15 4 -8 0
-15 -7 -15 -16z"/>
<path d="M2048 1423 c-39 -43 -30 -123 12 -123 18 0 26 18 20 45 -1 6 -5 30
-9 54 -6 42 -7 43 -23 24z"/>
<path d="M1680 1244 c0 -8 5 -12 10 -9 6 3 10 10 10 16 0 5 -4 9 -10 9 -5 0
-10 -7 -10 -16z"/>
<path d="M1510 1216 c0 -2 7 -9 15 -16 13 -11 14 -10 9 4 -5 14 -24 23 -24 12z"/>
<path d="M1778 1113 c7 -3 16 -2 19 1 4 3 -2 6 -13 5 -11 0 -14 -3 -6 -6z"/>
</g>
</svg>
